<?xml version="1.0" encoding="utf-8"?>
<!-- Generator: Adobe Illustrator 19.0.0, SVG Export Plug-In . SVG Version: 6.00 Build 0)  -->
<svg version="1.1"
	 id="svg2424" xmlns:svg="http://www.w3.org/2000/svg" xmlns:rdf="http://www.w3.org/1999/02/22-rdf-syntax-ns#" xmlns:dc="http://purl.org/dc/elements/1.1/" xmlns:cc="http://creativecommons.org/ns#" xmlns:inkscape="http://www.inkscape.org/namespaces/inkscape" xmlns:sodipodi="http://sodipodi.sourceforge.net/DTD/sodipodi-0.dtd" inkscape:export-ydpi="90" inkscape:export-xdpi="90" inkscape:export-filename="/home/thayer/archlinux-logo-contest/vertical.png" inkscape:output_extension="org.inkscape.output.svg.inkscape" sodipodi:docname="archlinux-vertical-dark.svg" sodipodi:docbase="/home/thayer/arch/artwork/archlinux-official-artwork" inkscape:version="0.46" sodipodi:version="0.32"
	 xmlns="http://www.w3.org/2000/svg" xmlns:xlink="http://www.w3.org/1999/xlink" x="0px" y="0px" viewBox="-28 73.9 365 275"
	 style="enable-background:new -28 73.9 365 275;" xml:space="preserve">
<style type="text/css">
	.st0{fill:#FFFFFF;}
</style>
<defs>
	
	
		<inkscape:perspective  id="perspective72" inkscape:vp_y="0 : 1000 : 0" inkscape:vp_x="0 : 137.5 : 1" inkscape:vp_z="365 : 137.5 : 1" sodipodi:type="inkscape:persp3d" inkscape:persp3d-origin="182.5 : 91.666667 : 1">
		</inkscape:perspective>
</defs>
<sodipodi:namedview  width="365px" height="275px" id="base" guidetolerance="10" showgrid="false" inkscape:cx="182.5" borderopacity="1.0" inkscape:cy="137.5" pagecolor="#ffffff" bordercolor="#666666" showguides="true" gridtolerance="10000" inkscape:zoom="1" objecttolerance="10" inkscape:guide-bbox="true" inkscape:window-y="24" inkscape:window-x="148" inkscape:window-height="978" inkscape:window-width="1034" inkscape:current-layer="layer1" inkscape:document-units="px" inkscape:pageshadow="2" inkscape:pageopacity="0.0">
	</sodipodi:namedview>
<g>
	<path class="st0" d="M214.1,195.4c-7.1-26.3-31-45.6-59.6-45.6c-34.1,0-61.7,27.6-61.7,61.7c0,5.8,0.8,11.4,2.3,16.7
		c7.3,25.9,31.1,45,59.4,45c34.1,0,61.7-27.6,61.7-61.7C216.2,205.9,215.4,200.5,214.1,195.4z M201.6,208.2
		c-1.8,1.2-3.9,2.4-6.1,3.6c-0.2,22.5-18.5,40.8-41.1,40.8c-8.2,0-15.9-2.4-22.3-6.6c6.8-2.8,17.4-7.8,28.7-15.8
		c2.1-1.5,0.5-4.7-1.9-4c0,0-0.1,0-0.1,0c-14.5,4.2-28.1,6.6-39,7.3c-2.5,0.2-4.9,0.2-7,0.2c-9.7-0.1-16.2-2.1-17.3-5.9
		c-1.1-3.9,3.4-9,11.8-14.4c0.1,2.6,0.4,5.1,0.9,7.5c0.4,1.7,2.1,2.8,3.8,2.4c1.6-0.4,2.5-2,2.2-3.6c-0.5-2.7-0.8-5.4-0.8-8.3
		c0-0.5,0-1.1,0-1.6c0.8-21.9,18.9-39.5,41-39.5c14,0,26.4,7,33.8,17.8c2.1,3,3.8,6.4,5,9.9c0.5,1.5,2.2,2.4,3.7,2l0,0
		c1.7-0.5,2.7-2.3,2.1-4c-1-2.9-2.2-5.6-3.7-8.2c10,0,16.7,2,17.8,5.9c0.2,0.6,0.2,1.1,0.1,1.7C213.1,199.2,208.7,203.6,201.6,208.2
		z"/>
</g>
</svg>
