<?xml version="1.0" encoding="UTF-8" standalone="no"?>
<svg
   xmlns:dc="http://purl.org/dc/elements/1.1/"
   xmlns:cc="http://creativecommons.org/ns#"
   xmlns:rdf="http://www.w3.org/1999/02/22-rdf-syntax-ns#"
   xmlns:svg="http://www.w3.org/2000/svg"
   xmlns="http://www.w3.org/2000/svg"
   xmlns:sodipodi="http://sodipodi.sourceforge.net/DTD/sodipodi-0.dtd"
   xmlns:inkscape="http://www.inkscape.org/namespaces/inkscape"
   id="Layer_1"
   data-name="Layer 1"
   viewBox="0 0 300 300"
   version="1.1"
   sodipodi:docname="koompi.svg"
   inkscape:version="0.92.4 5da689c313, 2019-01-14"
   width="300"
   height="300">
  <metadata
     id="metadata19">
    <rdf:RDF>
      <cc:Work
         rdf:about="">
        <dc:format>image/svg+xml</dc:format>
        <dc:type
           rdf:resource="http://purl.org/dc/dcmitype/StillImage" />
      </cc:Work>
    </rdf:RDF>
  </metadata>
  <sodipodi:namedview
     pagecolor="#ffffff"
     bordercolor="#666666"
     borderopacity="1"
     objecttolerance="10"
     gridtolerance="10"
     guidetolerance="10"
     inkscape:pageopacity="0"
     inkscape:pageshadow="2"
     inkscape:window-width="1920"
     inkscape:window-height="1011"
     id="namedview17"
     showgrid="false"
     inkscape:zoom="1"
     inkscape:cx="-114.35411"
     inkscape:cy="193.32532"
     inkscape:window-x="0"
     inkscape:window-y="32"
     inkscape:window-maximized="1"
     inkscape:current-layer="Layer_1" />
  <defs
     id="defs4">
    <style
       id="style2">.cls-1{fill:#fff;}</style>
  </defs>
  <title
     id="title6">koompi-1</title>
  <g
     id="g44"
     transform="scale(9.375)">
    <path
       style="fill:#ffffff"
       id="path8"
       transform="translate(-2,-2)"
       d="m 19,2 v 10.52 a 4.5,4.5 0 0 0 4.5,4.5 H 34 A 22.92,22.92 0 0 1 19,2 Z"
       class="cls-1"
       inkscape:connector-curvature="0" />
    <path
       style="fill:#ffffff"
       id="path10"
       transform="translate(-2,-2)"
       d="M 19,34 V 23.21 A 4.23,4.23 0 0 1 23.21,19 H 34 A 22.92,22.92 0 0 0 19,34 Z"
       class="cls-1"
       inkscape:connector-curvature="0" />
    <path
       style="fill:#ffffff"
       transform="translate(-2,-2)"
       id="path12"
       d="M 17,2 V 12.79 A 4.23,4.23 0 0 1 12.79,17 H 2 A 22.92,22.92 0 0 0 17,2 Z"
       class="cls-1"
       inkscape:connector-curvature="0" />
    <path
       style="fill:#ffffff"
       id="path14"
       transform="translate(-2,-2)"
       d="M 17,34 V 23.21 A 4.23,4.23 0 0 0 12.79,19 H 2 a 22.92,22.92 0 0 1 15,15 z"
       class="cls-1"
       inkscape:connector-curvature="0" />
  </g>
</svg>
